HIERARCHY
ROOT Hips
{
	OFFSET -0.001795 -0.223333 0.028219
	CHANNELS 6 Xposition Yposition Zposition Zrotation Yrotation Xrotation 
	JOINT LeftUpLeg
	{
		OFFSET 0.069520 -0.091406 -0.006815
		CHANNELS 3 Zrotation Yrotation Xrotation
		JOINT LeftLeg
		{
			OFFSET 0.034277 -0.375199 -0.004496
			CHANNELS 3 Zrotation Yrotation Xrotation
			JOINT LeftFoot
			{
				OFFSET -0.013596 -0.397961 -0.043693
				CHANNELS 3 Zrotation Yrotation Xrotation
				JOINT LeftToe
				{
					OFFSET 0.026358 -0.055791 0.119288
					CHANNELS 3 Zrotation Yrotation Xrotation
					End Site
					{
						OFFSET 0.000000 0.000000 0.000000
					}
				}
			}
		}
	}
	JOINT RightUpLeg
	{
		OFFSET -0.067670 -0.090522 -0.004320
		CHANNELS 3 Zrotation Yrotation Xrotation
		JOINT RightLeg
		{
			OFFSET -0.038290 -0.382569 -0.008850
			CHANNELS 3 Zrotation Yrotation Xrotation
			JOINT RightFoot
			{
				OFFSET 0.015774 -0.398415 -0.042312
				CHANNELS 3 Zrotation Yrotation Xrotation
				JOINT RightToe
				{
					OFFSET -0.025372 -0.048144 0.123348
					CHANNELS 3 Zrotation Yrotation Xrotation
					End Site
					{
						OFFSET 0.000000 0.000000 0.000000
					}
				}
			}
		}
	}
	JOINT Spine
	{
		OFFSET -0.002533 0.108963 -0.026696
		CHANNELS 3 Zrotation Yrotation Xrotation
		JOINT Spine1
		{
			OFFSET 0.005487 0.135180 0.001092
			CHANNELS 3 Zrotation Yrotation Xrotation
			JOINT Spine2
			{
				OFFSET 0.001457 0.052922 0.025425
				CHANNELS 3 Zrotation Yrotation Xrotation
				JOINT Neck
				{
					OFFSET -0.002778 0.213870 -0.042857
					CHANNELS 3 Zrotation Yrotation Xrotation
					JOINT Head
					{
						OFFSET 0.005152 0.064970 0.051349
						CHANNELS 3 Zrotation Yrotation Xrotation
						End Site
						{
							OFFSET 0.000000 0.000000 0.000000
						}
					}
				}
				JOINT LeftShoulder
				{
					OFFSET 0.078845 0.121749 -0.034090
					CHANNELS 3 Zrotation Yrotation Xrotation
					JOINT LeftArm
					{
						OFFSET 0.090977 0.030469 -0.008868
						CHANNELS 3 Zrotation Yrotation Xrotation
						JOINT LeftForeArm
						{
							OFFSET 0.259612 -0.012772 -0.027456
							CHANNELS 3 Zrotation Yrotation Xrotation
							JOINT LeftHand
							{
								OFFSET 0.249234 0.008986 -0.001171
								CHANNELS 3 Zrotation Yrotation Xrotation
								End Site
								{
									OFFSET 0.000000 0.000000 0.000000
								}
							}
						}
					}
				}
				JOINT RightShoulder
				{
					OFFSET -0.081759 0.118833 -0.038615
					CHANNELS 3 Zrotation Yrotation Xrotation
					JOINT RightArm
					{
						OFFSET -0.096012 0.032551 -0.009143
						CHANNELS 3 Zrotation Yrotation Xrotation
						JOINT RightForeArm
						{
							OFFSET -0.253742 -0.013329 -0.021401
							CHANNELS 3 Zrotation Yrotation Xrotation
							JOINT RightHand
							{
								OFFSET -0.255298 0.007772 -0.005559
								CHANNELS 3 Zrotation Yrotation Xrotation
								End Site
								{
									OFFSET 0.000000 0.000000 0.000000
								}
							}
						}
					}
				}
			}
		}
	}
}
MOTION
Frames: 13
Frame Time: 0.050000
0.000000 0.923780 0.000000 -0.751502 -6.124284 -6.006947 5.438105 0.137044 0.828328 6.823069 -1.290859 5.230623 -4.487582 -6.663643 5.455280 0.000000 0.000000 0.000000 -7.036166 0.102596 2.189095 22.735968 -3.590381 11.111904 -17.038631 -32.244062 22.815772 0.000000 0.000000 0.000000 3.463835 -0.931865 15.461146 -4.421869 1.622705 -22.691199 -1.148891 7.378847 23.339211 6.505095 -0.886786 -30.658739 0.000000 0.000000 0.000000 -24.275160 -12.157118 4.398454 -44.963668 -7.711623 -4.044579 -11.387992 -24.570085 3.393166 0.000000 0.000000 0.000000 29.169519 5.397376 3.064480 48.690850 8.419601 -3.883493 12.802948 26.113672 4.019282 0.000000 0.000000 0.000000 
0.010004 0.924027 0.004104 0.018062 -7.642462 -6.734774 4.577776 0.260357 2.631317 5.570584 -1.024886 4.340768 -3.753469 -5.579411 4.992327 0.000000 0.000000 0.000000 -8.326009 0.177049 3.219946 22.045054 -3.286782 10.959719 -16.103489 -31.330143 21.229506 0.000000 0.000000 0.000000 3.095310 -0.888043 16.489622 -5.291858 1.822190 -23.239863 -1.569219 8.392375 22.678614 7.595587 -1.281336 -31.756819 0.000000 0.000000 0.000000 -23.129874 -12.333842 4.433089 -44.854901 -7.062728 -4.227500 -11.984382 -24.474376 3.486133 0.000000 0.000000 0.000000 29.665765 5.493275 3.137380 48.704056 7.739529 -4.116108 13.210327 25.145675 3.919337 0.000000 0.000000 0.000000 
0.019136 0.922951 0.007249 0.301679 -7.788307 -6.297453 4.407424 0.204102 1.760060 4.145718 -0.857432 5.322933 -3.456502 -5.491401 3.953623 0.000000 0.000000 0.000000 -8.892993 0.229901 3.002726 21.460093 -3.139056 10.711926 -16.175680 -31.573318 20.299907 0.000000 0.000000 0.000000 2.630321 -0.780681 15.374724 -4.993082 1.745772 -22.291285 -1.753713 8.227089 22.714109 8.038899 -1.562838 -31.719464 0.000000 0.000000 0.000000 -23.286529 -12.048617 4.372227 -44.652698 -7.339682 -4.132455 -13.003185 -24.366949 3.700317 0.000000 0.000000 0.000000 28.274165 5.469440 2.976132 50.300493 8.109939 -3.972881 12.402405 24.976634 3.725724 0.000000 0.000000 0.000000 
0.027745 0.923935 0.009487 0.844996 -7.915041 -6.966515 3.101594 0.305351 3.170757 4.349327 -0.820835 4.163894 -3.402580 -5.356991 4.060611 0.000000 0.000000 0.000000 -9.992939 0.291171 2.719689 21.151670 -3.295545 12.412426 -16.088586 -31.352981 21.045061 0.000000 0.000000 0.000000 1.951498 -0.747758 17.201126 -5.421717 1.850507 -23.419423 -1.761771 8.139682 22.367541 8.970752 -1.778172 -33.740983 0.000000 0.000000 0.000000 -22.330015 -12.324236 4.560001 -44.726730 -6.866539 -4.322849 -13.587904 -23.892136 3.746619 0.000000 0.000000 0.000000 28.667223 5.655331 3.029369 49.794338 8.500850 -3.772731 12.804487 24.375743 3.686813 0.000000 0.000000 0.000000 
0.035460 0.924387 0.011111 0.686237 -7.992792 -6.497170 2.842593 0.304555 3.186964 4.158470 -0.739726 3.364405 -3.307930 -5.274753 3.846044 0.000000 0.000000 0.000000 -10.085982 0.308723 1.977186 20.697714 -3.266822 12.876446 -16.117970 -31.343305 21.413290 0.000000 0.000000 0.000000 1.573288 -0.689064 16.872881 -5.151419 1.773522 -23.427679 -1.635767 8.097475 22.205435 9.107057 -1.819724 -33.938534 0.000000 0.000000 0.000000 -22.239138 -11.735091 4.249094 -45.063411 -6.947766 -4.313721 -13.375364 -23.862911 3.704307 0.000000 0.000000 0.000000 28.456068 5.373848 2.802131 50.246143 8.475002 -3.764669 12.549585 24.275248 3.621122 0.000000 0.000000 0.000000 
0.041988 0.924391 0.012092 0.709130 -8.237536 -6.811201 2.538663 0.352601 3.701540 3.857726 -0.683381 3.163215 -3.152907 -5.124859 3.530205 0.000000 0.000000 0.000000 -10.364597 0.324139 1.896785 20.286273 -3.256363 13.594147 -15.983929 -31.165169 21.503099 0.000000 0.000000 0.000000 1.103957 -0.635506 17.626733 -5.163227 1.771520 -23.635951 -1.648727 7.980061 21.628538 9.561564 -2.025113 -34.194085 0.000000 0.000000 0.000000 -22.443426 -11.879542 4.379998 -44.242090 -6.268268 -4.446635 -13.623071 -23.656880 3.717134 0.000000 0.000000 0.000000 29.038268 5.741195 2.937366 50.069886 8.349841 -3.747925 12.577099 23.957552 3.552557 0.000000 0.000000 0.000000 
0.047404 0.924151 0.012648 0.471621 -8.434952 -6.936067 2.600107 0.389738 4.132301 3.565659 -0.616514 2.756947 -3.019276 -5.040143 3.147434 0.000000 0.000000 0.000000 -10.361024 0.325398 1.862000 20.044921 -3.233021 13.913502 -15.861900 -31.008296 21.546251 0.000000 0.000000 0.000000 1.230803 -0.657529 17.984493 -5.297516 1.805117 -23.593475 -1.560569 8.031035 21.548354 9.829159 -2.143739 -34.313163 0.000000 0.000000 0.000000 -22.334254 -12.261440 4.600818 -44.076364 -6.081233 -4.488971 -13.582739 -23.810674 3.729812 0.000000 0.000000 0.000000 29.295883 5.837684 2.983340 50.104912 8.190022 -3.804315 12.244970 23.977783 3.484323 0.000000 0.000000 0.000000 
0.051887 0.924059 0.012521 0.484411 -8.527306 -7.385213 2.391964 0.452150 4.795077 3.398402 -0.572511 2.396202 -2.973699 -5.029336 2.986724 0.000000 0.000000 0.000000 -10.429581 0.322692 2.263274 19.586411 -3.151944 14.013801 -15.783454 -30.936068 21.355681 0.000000 0.000000 0.000000 1.124638 -0.649291 18.539751 -5.633274 1.895446 -23.749156 -1.682589 8.027110 21.786267 10.376454 -2.522846 -33.776689 0.000000 0.000000 0.000000 -21.836566 -12.389682 4.689095 -44.023451 -5.842229 -4.607839 -13.687073 -23.615354 3.719808 0.000000 0.000000 0.000000 29.630724 5.525631 2.770209 50.201185 8.013499 -3.911074 12.657416 24.019801 3.579792 0.000000 0.000000 0.000000 
0.054805 0.924185 0.012050 0.396838 -8.464718 -7.443806 2.196329 0.495471 5.261580 3.598180 -0.552157 1.569318 -3.017791 -5.091818 3.049408 0.000000 0.000000 0.000000 -10.563720 0.325413 2.234217 19.644417 -3.179733 14.092489 -15.767346 -30.880647 21.605713 0.000000 0.000000 0.000000 1.456307 -0.711387 18.981345 -5.930358 1.965704 -24.286198 -1.797586 7.817697 22.101794 10.517510 -2.683010 -33.478419 0.000000 0.000000 0.000000 -21.428362 -12.454443 4.774048 -43.980521 -5.447278 -4.790012 -14.137645 -23.733102 3.837087 0.000000 0.000000 0.000000 29.571509 5.070801 2.425295 50.476968 7.696068 -4.076021 12.736199 24.245302 3.643049 0.000000 0.000000 0.000000 
0.056416 0.925004 0.011543 0.492780 -8.509292 -7.881659 1.932814 0.613684 6.467559 3.741424 -0.483701 0.147107 -3.163017 -5.122728 3.645082 0.000000 0.000000 0.000000 -10.591345 0.319912 2.645467 19.286327 -3.111650 14.110499 -15.668790 -30.737678 21.716927 0.000000 0.000000 0.000000 1.419894 -0.714703 19.601687 -6.001482 1.987261 -24.424399 -2.028537 7.689902 22.178067 11.054476 -2.984584 -33.505980 0.000000 0.000000 0.000000 -21.241896 -12.271605 4.709816 -43.902884 -5.179453 -4.908069 -14.540237 -23.219888 3.836053 0.000000 0.000000 0.000000 29.777077 4.726549 2.144160 50.193682 7.456459 -4.167497 13.542355 24.032805 3.765648 0.000000 0.000000 0.000000 
0.056878 0.925562 0.010758 0.574260 -9.176168 -7.854631 1.565964 0.662469 6.765257 4.158834 -0.504029 -0.377467 -2.928544 -4.531557 3.995288 0.000000 0.000000 0.000000 -10.720688 0.350354 2.199591 19.216973 -3.080692 14.560741 -15.306971 -30.298191 21.684004 0.000000 0.000000 0.000000 1.577898 -0.718535 19.779368 -6.087283 1.996917 -24.481512 -1.948393 7.887154 22.402420 11.197893 -3.029831 -33.903908 0.000000 0.000000 0.000000 -21.204671 -12.497613 4.910463 -44.030365 -5.226965 -4.947621 -14.295075 -22.903408 3.739896 0.000000 0.000000 0.000000 29.691162 4.642790 2.014907 50.269226 7.430197 -4.181258 13.060519 23.984992 3.654744 0.000000 0.000000 0.000000 
0.056477 0.926781 0.009768 0.818402 -9.529435 -8.190094 1.261231 0.731981 7.287360 4.284232 -0.495975 -0.752330 -2.920859 -4.245440 4.679109 0.000000 0.000000 0.000000 -10.730741 0.354918 1.992143 18.753485 -3.030842 15.297495 -15.109805 -30.027259 21.936349 0.000000 0.000000 0.000000 1.475460 -0.694689 20.286666 -6.245535 2.036624 -24.337727 -1.989724 7.738808 22.534864 11.434848 -3.233391 -33.810165 0.000000 0.000000 0.000000 -21.465188 -12.492729 5.025822 -43.672348 -5.586533 -4.836248 -14.125442 -22.494639 3.643034 0.000000 0.000000 0.000000 30.221461 4.432600 1.724172 49.674344 7.306828 -4.182212 13.407239 24.253303 3.756836 0.000000 0.000000 0.000000 
0.055065 0.927411 0.008603 0.818614 -10.017224 -8.382217 1.309673 0.757149 7.476505 4.368261 -0.513750 -0.689010 -2.776893 -3.862023 4.987731 0.000000 0.000000 0.000000 -10.731353 0.365132 1.655807 18.837992 -3.067723 16.002722 -14.812332 -29.636503 22.207621 0.000000 0.000000 0.000000 1.492377 -0.683684 20.655574 -6.095755 1.990038 -24.284788 -2.049382 7.532929 22.781214 11.496455 -3.405011 -33.545864 0.000000 0.000000 0.000000 -21.664925 -12.656046 5.280426 -43.413517 -5.572478 -4.880997 -14.114435 -22.530595 3.658330 0.000000 0.000000 0.000000 30.349120 4.536109 1.600290 49.379918 7.591505 -4.026993 13.181655 24.548678 3.743642 0.000000 0.000000 0.000000 
